<mxfile host="Electron" agent="Mozilla/5.0 (Macintosh; Intel Mac OS X 10_15_7) AppleWebKit/537.36 (KHTML, like Gecko) draw.io/26.2.2 Chrome/134.0.6998.178 Electron/35.1.2 Safari/537.36" version="26.2.2">
  <diagram name="VM Provisioning Flow" id="vm-provisioning-flow">
    <mxGraphModel dx="1236" dy="803" grid="1" gridSize="10" guides="1" tooltips="1" connect="1" arrows="1" fold="1" page="1" pageScale="1" pageWidth="827" pageHeight="1169" math="0" shadow="0">
      <root>
        <mxCell id="0" />
        <mxCell id="1" parent="0" />
        <mxCell id="2" value="ServiceNow Request" style="rounded=1;whiteSpace=wrap;html=1;fillColor=#dae8fc;strokeColor=#6c8ebf;" parent="1" vertex="1">
          <mxGeometry x="220" y="100" width="160" height="60" as="geometry" />
        </mxCell>
        <mxCell id="3" value="EDA Rulebook" style="rounded=1;whiteSpace=wrap;html=1;fillColor=#e1d5e7;strokeColor=#9673a6;" parent="1" vertex="1">
          <mxGeometry x="440" y="100" width="160" height="60" as="geometry" />
        </mxCell>
        <mxCell id="4" value="Run Job Template: Enrich ServiceNow REQ" style="rounded=1;whiteSpace=wrap;html=1;fillColor=#d5e8d4;strokeColor=#82b366;" parent="1" vertex="1">
          <mxGeometry x="670" y="100" width="260" height="60" as="geometry" />
        </mxCell>
        <mxCell id="RxPHAmQaYYayvup5Rk9Y-14" style="edgeStyle=orthogonalEdgeStyle;rounded=0;orthogonalLoop=1;jettySize=auto;html=1;exitX=0;exitY=0;exitDx=140;exitDy=35;exitPerimeter=0;" edge="1" parent="1" source="5" target="6">
          <mxGeometry relative="1" as="geometry" />
        </mxCell>
        <mxCell id="5" value="post_events: true" style="shape=note;whiteSpace=wrap;html=1;fillColor=#fff2cc;strokeColor=#d6b656;" parent="1" vertex="1">
          <mxGeometry x="820" y="140" width="140" height="40" as="geometry" />
        </mxCell>
        <mxCell id="6" value="EDA Rulebook (Re-triggered)" style="rounded=1;whiteSpace=wrap;html=1;fillColor=#e1d5e7;strokeColor=#9673a6;" parent="1" vertex="1">
          <mxGeometry x="220" y="280" width="200" height="60" as="geometry" />
        </mxCell>
        <mxCell id="7" value="Condition: business_purpose == &#39;test&#39;" style="rounded=1;whiteSpace=wrap;html=1;fillColor=#fff2cc;strokeColor=#d6b656;" parent="1" vertex="1">
          <mxGeometry x="440" y="280" width="280" height="60" as="geometry" />
        </mxCell>
        <mxCell id="8" value="Run Job Template: Provision Test VM" style="rounded=1;whiteSpace=wrap;html=1;fillColor=#d5e8d4;strokeColor=#82b366;" parent="1" vertex="1">
          <mxGeometry x="740" y="280" width="240" height="60" as="geometry" />
        </mxCell>
        <mxCell id="9" style="edgeStyle=orthogonalEdgeStyle;rounded=0;orthogonalLoop=1;jettySize=auto;html=1;exitX=1;exitY=0.5;exitDx=0;exitDy=0;" parent="1" source="2" target="3" edge="1">
          <mxGeometry relative="1" as="geometry" />
        </mxCell>
        <mxCell id="10" style="edgeStyle=orthogonalEdgeStyle;rounded=0;orthogonalLoop=1;jettySize=auto;html=1;" parent="1" source="3" target="4" edge="1">
          <mxGeometry relative="1" as="geometry" />
        </mxCell>
        <mxCell id="13" style="edgeStyle=orthogonalEdgeStyle;rounded=0;orthogonalLoop=1;jettySize=auto;html=1;" parent="1" source="6" target="7" edge="1">
          <mxGeometry relative="1" as="geometry" />
        </mxCell>
        <mxCell id="14" style="edgeStyle=orthogonalEdgeStyle;rounded=0;orthogonalLoop=1;jettySize=auto;html=1;" parent="1" source="7" target="8" edge="1">
          <mxGeometry relative="1" as="geometry" />
        </mxCell>
        <mxCell id="RxPHAmQaYYayvup5Rk9Y-16" value="Service Now" style="rounded=1;whiteSpace=wrap;html=1;fillColor=#dae8fc;strokeColor=#6c8ebf;" vertex="1" parent="1">
          <mxGeometry x="220" y="412" width="140" height="20" as="geometry" />
        </mxCell>
        <mxCell id="RxPHAmQaYYayvup5Rk9Y-17" value="Event Driven Ansible" style="rounded=1;whiteSpace=wrap;html=1;fillColor=#e1d5e7;strokeColor=#9673a6;" vertex="1" parent="1">
          <mxGeometry x="220" y="442" width="140" height="20" as="geometry" />
        </mxCell>
        <mxCell id="RxPHAmQaYYayvup5Rk9Y-18" value="Rulebook" style="rounded=1;whiteSpace=wrap;html=1;fillColor=#fff2cc;strokeColor=#d6b656;" vertex="1" parent="1">
          <mxGeometry x="220" y="470" width="140" height="20" as="geometry" />
        </mxCell>
        <mxCell id="RxPHAmQaYYayvup5Rk9Y-21" value="" style="ellipse;shape=cloud;whiteSpace=wrap;html=1;fillColor=#ffe6cc;strokeColor=#d79b00;" vertex="1" parent="1">
          <mxGeometry x="710" y="390" width="270" height="160" as="geometry" />
        </mxCell>
        <mxCell id="RxPHAmQaYYayvup5Rk9Y-22" value="EC2 instance" style="rounded=1;whiteSpace=wrap;html=1;fillColor=#f5f5f5;strokeColor=#666666;fontColor=#333333;" vertex="1" parent="1">
          <mxGeometry x="827" y="460" width="80" height="40" as="geometry" />
        </mxCell>
        <mxCell id="RxPHAmQaYYayvup5Rk9Y-24" style="edgeStyle=orthogonalEdgeStyle;rounded=0;orthogonalLoop=1;jettySize=auto;html=1;exitX=0.5;exitY=1;exitDx=0;exitDy=0;entryX=0.556;entryY=0.15;entryDx=0;entryDy=0;entryPerimeter=0;" edge="1" parent="1" source="8" target="RxPHAmQaYYayvup5Rk9Y-21">
          <mxGeometry relative="1" as="geometry" />
        </mxCell>
        <mxCell id="RxPHAmQaYYayvup5Rk9Y-25" value="AWS" style="text;html=1;align=center;verticalAlign=middle;whiteSpace=wrap;rounded=0;" vertex="1" parent="1">
          <mxGeometry x="780" y="420" width="60" height="20" as="geometry" />
        </mxCell>
        <mxCell id="RxPHAmQaYYayvup5Rk9Y-26" value="AWS" style="rounded=1;whiteSpace=wrap;html=1;fillColor=#ffe6cc;strokeColor=#d79b00;" vertex="1" parent="1">
          <mxGeometry x="220" y="540" width="140" height="20" as="geometry" />
        </mxCell>
        <mxCell id="RxPHAmQaYYayvup5Rk9Y-27" value="Key" style="text;html=1;align=center;verticalAlign=middle;whiteSpace=wrap;rounded=0;fontStyle=1" vertex="1" parent="1">
          <mxGeometry x="210" y="380" width="60" height="30" as="geometry" />
        </mxCell>
        <mxCell id="RxPHAmQaYYayvup5Rk9Y-29" value="Controller: Job template" style="rounded=1;whiteSpace=wrap;html=1;fillColor=#d5e8d4;strokeColor=#82b366;" vertex="1" parent="1">
          <mxGeometry x="220" y="500" width="140" height="28" as="geometry" />
        </mxCell>
      </root>
    </mxGraphModel>
  </diagram>
</mxfile>
